<?xml version="1.0" encoding="UTF-8" standalone="no"?>
<!-- Created with Inkscape (http://www.inkscape.org/) -->

<svg
   xmlns:dc="http://purl.org/dc/elements/1.1/"
   xmlns:cc="http://creativecommons.org/ns#"
   xmlns:rdf="http://www.w3.org/1999/02/22-rdf-syntax-ns#"
   xmlns:svg="http://www.w3.org/2000/svg"
   xmlns="http://www.w3.org/2000/svg"
   xmlns:sodipodi="http://sodipodi.sourceforge.net/DTD/sodipodi-0.dtd"
   xmlns:inkscape="http://www.inkscape.org/namespaces/inkscape"
   version="1.1"
   id="svg3811"
   xml:space="preserve"
   width="755.90668"
   height="226.72"
   viewBox="0 0 755.90668 226.72"
   sodipodi:docname="Spotify_Logo_Green.svg"
   inkscape:version="0.92.3 (unknown)"><metadata
     id="metadata3817"><rdf:RDF><cc:Work
         rdf:about=""><dc:format>image/svg+xml</dc:format><dc:type
           rdf:resource="http://purl.org/dc/dcmitype/StillImage" /><dc:title></dc:title></cc:Work></rdf:RDF></metadata><defs
     id="defs3815"><clipPath
       clipPathUnits="userSpaceOnUse"
       id="clipPath3827"><path
         d="M 0,170.04 H 566.93 V 0 H 0 Z"
         id="path3825"
         inkscape:connector-curvature="0" /></clipPath></defs><sodipodi:namedview
     pagecolor="#ffffff"
     bordercolor="#666666"
     borderopacity="1"
     objecttolerance="10"
     gridtolerance="10"
     guidetolerance="10"
     inkscape:pageopacity="0"
     inkscape:pageshadow="2"
     inkscape:window-width="1855"
     inkscape:window-height="1056"
     id="namedview3813"
     showgrid="false"
     inkscape:zoom="0.542395"
     inkscape:cx="377.95334"
     inkscape:cy="113.36"
     inkscape:window-x="65"
     inkscape:window-y="24"
     inkscape:window-maximized="1"
     inkscape:current-layer="g3819" /><g
     id="g3819"
     inkscape:groupmode="layer"
     inkscape:label="Spotify_Logo_RGB_Green"
     transform="matrix(1.3333333,0,0,-1.3333333,0,226.72)"><g
       id="g3821"><g
         id="g3823"
         clip-path="url(#clipPath3827)"><g
           id="g3829"
           transform="translate(137.5324,94.5233)"><path
             d="m 0,0 c -26.994,16.031 -71.52,17.505 -97.289,9.684 -4.139,-1.256 -8.515,1.08 -9.768,5.218 -1.254,4.141 1.079,8.514 5.22,9.772 29.582,8.979 78.756,7.245 109.832,-11.202 3.723,-2.21 4.943,-7.017 2.737,-10.733 C 8.524,-0.983 3.713,-2.21 0,0 m -0.884,-23.744 c -1.894,-3.073 -5.912,-4.037 -8.981,-2.15 -22.504,13.833 -56.822,17.841 -83.447,9.759 -3.452,-1.043 -7.099,0.903 -8.148,4.35 -1.04,3.452 0.907,7.092 4.354,8.142 30.415,9.23 68.226,4.76 94.074,-11.125 3.069,-1.89 4.035,-5.91 2.148,-8.976 m -10.247,-22.803 c -1.505,-2.468 -4.718,-3.241 -7.177,-1.737 -19.665,12.019 -44.417,14.733 -73.567,8.075 -2.809,-0.644 -5.609,1.116 -6.249,3.924 -0.644,2.809 1.11,5.609 3.925,6.25 31.9,7.292 59.263,4.154 81.336,-9.334 2.461,-1.503 3.236,-4.718 1.732,-7.178 M -49.537,74.24 c -46.249,0 -83.743,-37.493 -83.743,-83.742 0,-46.254 37.494,-83.745 83.743,-83.745 46.251,0 83.744,37.491 83.744,83.745 0,46.249 -37.493,83.742 -83.744,83.742"
             style="fill:#1ed760;fill-opacity:1;fill-rule:nonzero;stroke:none"
             id="path3831"
             inkscape:connector-curvature="0" /></g><g
           id="g3833"
           transform="translate(232.0887,91.4538)"><path
             d="m 0,0 c -14.459,3.448 -17.033,5.868 -17.033,10.953 0,4.804 4.523,8.036 11.249,8.036 6.52,0 12.984,-2.455 19.763,-7.509 0.205,-0.153 0.462,-0.214 0.715,-0.174 0.253,0.038 0.477,0.176 0.625,0.386 l 7.06,9.952 c 0.29,0.41 0.211,0.975 -0.18,1.288 -8.067,6.473 -17.151,9.62 -27.769,9.62 -15.612,0 -26.517,-9.368 -26.517,-22.774 0,-14.375 9.407,-19.464 25.663,-23.394 13.836,-3.187 16.171,-5.856 16.171,-10.63 0,-5.289 -4.721,-8.577 -12.32,-8.577 -8.44,0 -15.324,2.843 -23.025,9.512 -0.191,0.164 -0.453,0.24 -0.695,0.226 -0.255,-0.021 -0.488,-0.139 -0.65,-0.334 l -7.916,-9.421 c -0.332,-0.391 -0.29,-0.975 0.094,-1.313 8.96,-7.999 19.98,-12.224 31.871,-12.224 16.824,0 27.694,9.192 27.694,23.419 C 24.8,-10.934 17.617,-4.284 0,0"
             style="fill:#1ed760;fill-opacity:1;fill-rule:nonzero;stroke:none"
             id="path3835"
             inkscape:connector-curvature="0" /></g><g
           id="g3837"
           transform="translate(307.1621,75.3389)"><path
             d="m 0,0 c 0,-10.153 -6.254,-17.238 -15.209,-17.238 -8.853,0 -15.531,7.407 -15.531,17.238 0,9.83 6.678,17.238 15.531,17.238 C -6.398,17.238 0,9.99 0,0 m -12.212,30.375 c -7.292,0 -13.273,-2.872 -18.205,-8.757 v 6.624 c 0,0.523 -0.424,0.949 -0.947,0.949 H -44.31 c -0.523,0 -0.946,-0.426 -0.946,-0.949 V -45.36 c 0,-0.523 0.423,-0.949 0.946,-0.949 h 12.946 c 0.523,0 0.947,0.426 0.947,0.949 v 23.233 c 4.933,-5.537 10.915,-8.241 18.205,-8.241 13.549,0 27.265,10.43 27.265,30.368 0,19.942 -13.716,30.375 -27.265,30.375"
             style="fill:#1ed760;fill-opacity:1;fill-rule:nonzero;stroke:none"
             id="path3839"
             inkscape:connector-curvature="0" /></g><g
           id="g3841"
           transform="translate(357.3732,57.9949)"><path
             d="m 0,0 c -9.281,0 -16.278,7.457 -16.278,17.344 0,9.929 6.755,17.134 16.064,17.134 9.34,0 16.385,-7.457 16.385,-17.351 C 16.171,7.2 9.37,0 0,0 m 0,47.719 c -17.449,0 -31.119,-13.436 -31.119,-30.592 0,-16.969 13.576,-30.264 30.905,-30.264 17.511,0 31.223,13.392 31.223,30.481 0,17.033 -13.618,30.375 -31.009,30.375"
             style="fill:#1ed760;fill-opacity:1;fill-rule:nonzero;stroke:none"
             id="path3843"
             inkscape:connector-curvature="0" /></g><g
           id="g3845"
           transform="translate(425.6439,104.5297)"><path
             d="m 0,0 h -14.247 v 14.566 c 0,0.523 -0.422,0.949 -0.945,0.949 h -12.945 c -0.524,0 -0.95,-0.426 -0.95,-0.949 V 0 h -6.225 c -0.521,0 -0.943,-0.426 -0.943,-0.949 v -11.126 c 0,-0.523 0.422,-0.949 0.943,-0.949 h 6.225 v -28.791 c 0,-11.635 5.791,-17.535 17.212,-17.535 4.644,0 8.497,0.959 12.129,3.018 0.294,0.165 0.478,0.483 0.478,0.821 v 10.596 c 0,0.327 -0.17,0.636 -0.45,0.807 -0.282,0.177 -0.633,0.186 -0.922,0.043 -2.494,-1.255 -4.905,-1.834 -7.6,-1.834 -4.153,0 -6.007,1.886 -6.007,6.113 v 26.762 H 0 c 0.523,0 0.944,0.426 0.944,0.949 V -0.949 C 0.944,-0.426 0.523,0 0,0"
             style="fill:#1ed760;fill-opacity:1;fill-rule:nonzero;stroke:none"
             id="path3847"
             inkscape:connector-curvature="0" /></g><g
           id="g3849"
           transform="translate(475.281,104.4733)"><path
             d="m 0,0 v 1.789 c 0,5.263 2.018,7.61 6.544,7.61 2.699,0 4.867,-0.536 7.295,-1.346 0.299,-0.094 0.611,-0.047 0.854,0.132 0.25,0.179 0.391,0.466 0.391,0.769 v 10.911 c 0,0.416 -0.268,0.786 -0.669,0.908 -2.565,0.763 -5.847,1.547 -10.761,1.547 -11.959,0 -18.279,-6.735 -18.279,-19.467 v -2.74 h -6.219 c -0.523,0 -0.951,-0.426 -0.951,-0.948 v -11.184 c 0,-0.522 0.428,-0.949 0.951,-0.949 h 6.219 v -44.409 c 0,-0.523 0.422,-0.949 0.944,-0.949 h 12.946 c 0.523,0 0.949,0.426 0.949,0.949 v 44.409 h 12.088 l 18.517,-44.397 c -2.102,-4.665 -4.169,-5.593 -6.991,-5.593 -2.281,0 -4.683,0.681 -7.139,2.024 -0.231,0.127 -0.504,0.149 -0.754,0.071 -0.247,-0.087 -0.455,-0.271 -0.56,-0.511 l -4.388,-9.627 c -0.209,-0.455 -0.031,-0.989 0.407,-1.225 4.581,-2.481 8.717,-3.54 13.827,-3.54 9.56,0 14.844,4.453 19.503,16.433 l 22.461,58.041 c 0.112,0.291 0.079,0.621 -0.1,0.88 C 66.907,-0.155 66.62,0 66.306,0 H 52.828 C 52.425,0 52.063,-0.257 51.931,-0.636 L 38.124,-40.073 23.001,-0.61 C 22.863,-0.243 22.51,0 22.117,0 Z"
             style="fill:#1ed760;fill-opacity:1;fill-rule:nonzero;stroke:none"
             id="path3851"
             inkscape:connector-curvature="0" /></g><g
           id="g3853"
           transform="translate(446.5048,104.5297)"><path
             d="m 0,0 h -12.947 c -0.522,0 -0.948,-0.426 -0.948,-0.949 v -56.484 c 0,-0.523 0.426,-0.949 0.948,-0.949 H 0 c 0.522,0 0.949,0.426 0.949,0.949 V -0.949 C 0.949,-0.426 0.522,0 0,0"
             style="fill:#1ed760;fill-opacity:1;fill-rule:nonzero;stroke:none"
             id="path3855"
             inkscape:connector-curvature="0" /></g><g
           id="g3857"
           transform="translate(440.0974,130.2487)"><path
             d="m 0,0 c -5.129,0 -9.291,-4.152 -9.291,-9.281 0,-5.132 4.162,-9.289 9.291,-9.289 5.127,0 9.285,4.157 9.285,9.289 C 9.285,-4.152 5.127,0 0,0"
             style="fill:#1ed760;fill-opacity:1;fill-rule:nonzero;stroke:none"
             id="path3859"
             inkscape:connector-curvature="0" /></g><g
           id="g3861"
           transform="translate(554.0493,98.9112)"><path
             d="M 0,0 H -2.372 V -3.025 H 0 c 1.184,0 1.891,0.579 1.891,1.513 C 1.891,-0.527 1.184,0 0,0 M 1.537,-4.315 4.115,-7.923 H 1.942 l -2.32,3.309 H -2.372 V -7.923 H -4.191 V 1.64 h 4.264 c 2.222,0 3.684,-1.137 3.684,-3.05 0,-1.568 -0.906,-2.526 -2.22,-2.905 m -2.02,9.138 c -4.666,0 -8.198,-3.71 -8.198,-8.253 0,-4.54 3.506,-8.201 8.151,-8.201 4.665,0 8.201,3.708 8.201,8.253 0,4.541 -3.509,8.201 -8.154,8.201 M -0.53,-12.542 c -5.124,0 -9.111,4.115 -9.111,9.112 0,4.997 4.039,9.159 9.158,9.159 5.124,0 9.111,-4.114 9.111,-9.107 0,-4.998 -4.036,-9.164 -9.158,-9.164"
             style="fill:#1ed760;fill-opacity:1;fill-rule:nonzero;stroke:none"
             id="path3863"
             inkscape:connector-curvature="0" /></g></g></g></g></svg>